<svg xmlns="http://www.w3.org/2000/svg" version="1.1" xmlns:xlink="http://www.w3.org/1999/xlink" xmlns:svgjs="http://svgjs.dev/svgjs" width="35" height="35"><svg width="35" height="35" viewBox="0 0 35 35" fill="none" xmlns="http://www.w3.org/2000/svg">
<path d="M3.81885 33.018V33.518H4.31885H20.6532H21.1532V33.018V29.665V29.165H20.6532H9.44103V24.3203H18.3813H18.8813V24.3181H33.9219H34.4219V23.8181V2.90033V2.40033H33.9219H17.5876H17.0876V2.90033V6.25333V6.75333H17.5876H28.7997V11.598H19.8595H19.3595V11.6002H4.31885H3.81885V12.1002V33.018ZM20.3698 15.9532V15.951H28.7997V19.9651H18.371H17.871V19.9673H9.44103V15.9532H19.8698H20.3698Z" fill="#2D382F" stroke="#2D382F"></path>
<path d="M2.62012 32.0768V32.5768H3.12012H19.4545H19.9545V32.0768V28.7238V28.2238H19.4545H8.2423V23.3791H17.1825H17.6825V23.3769H32.7232H33.2232V22.8769V1.95917V1.45917H32.7232H16.3888H15.8888V1.95917V5.31216V5.81216H16.3888H27.601V10.6568H18.6607H18.1607V10.659H3.12012H2.62012V11.159V32.0768ZM19.171 15.012V15.0098H27.601V19.0239H17.1722H16.6722V19.0262H8.2423V15.012H18.671H19.171Z" fill="#4B604E" stroke="#4B604E"></path>
<path d="M1.42188 31.1357V31.6357H1.92188H18.2562H18.7562V31.1357V27.7827V27.2827H18.2562H7.04406V22.438H15.9843H16.4843V22.4358H31.5249H32.0249V21.9358V1.01801V0.518005H31.5249H15.1906H14.6906V1.01801V4.371V4.871H15.1906H26.4027V9.71567H17.4625H16.9625V9.71789H1.92188H1.42188V10.2179V31.1357ZM17.9728 14.0709V14.0687H26.4027V18.0828H15.974H15.474V18.085H7.04406V14.0709H17.4728H17.9728Z" fill="#798E7B" stroke="#798E7B"></path>
</svg><style>@media (prefers-color-scheme: light) { :root { filter: none; } }
@media (prefers-color-scheme: dark) { :root { filter: none; } }
</style></svg>