<svg width="35" height="35" viewBox="0 0 35 35" fill="none" xmlns="http://www.w3.org/2000/svg">
<path d="M3.81885 33.2236V33.7236H4.31885H20.6532H21.1532V33.2236V29.8706V29.3706H20.6532H9.44103V24.5259H18.3813H18.8813V24.5237H33.9219H34.4219V24.0237V3.10596V2.60596H33.9219H17.5876H17.0876V3.10596V6.45895V6.95895H17.5876H28.7997V11.8036H19.8595H19.3595V11.8058H4.31885H3.81885V12.3058V33.2236ZM20.3698 16.1588V16.1566H28.7997V20.1707H18.371H17.871V20.1729H9.44103V16.1588H19.8698H20.3698Z" fill="#798E7B" stroke="#798E7B"/>
<path d="M2.62012 32.2824V32.7824H3.12012H19.4545H19.9545V32.2824V28.9294V28.4294H19.4545H8.2423V23.5848H17.1825H17.6825V23.5826H32.7232H33.2232V23.0826V2.16479V1.66479H32.7232H16.3888H15.8888V2.16479V5.51779V6.01779H16.3888H27.601V10.8625H18.6607H18.1607V10.8647H3.12012H2.62012V11.3647V32.2824ZM19.171 15.2177V15.2155H27.601V19.2296H17.1722H16.6722V19.2318H8.2423V15.2177H18.671H19.171Z" fill="#4B604E" stroke="#4B604E"/>
<path d="M1.42188 31.3413V31.8413H1.92188H18.2562H18.7562V31.3413V27.9883V27.4883H18.2562H7.04406V22.6436H15.9843H16.4843V22.6414H31.5249H32.0249V22.1414V1.22363V0.723633H31.5249H15.1906H14.6906V1.22363V4.57663V5.07663H15.1906H26.4027V9.9213H17.4625H16.9625V9.92351H1.92188H1.42188V10.4235V31.3413ZM17.9728 14.2765V14.2743H26.4027V18.2884H15.974H15.474V18.2906H7.04406V14.2765H17.4728H17.9728Z" fill="#2D382F" stroke="#2D382F"/>
</svg>
